# xmcd CD database file
#
# Track frame offsets:
#	150
#	22026
#	42231
#	61546
#	80082
#	98288
#	118090
#	139015
#	156708
#	181339
#
# Disc length: 2694 seconds
#
# Revision: 1
# Processed by: cddbd v1.5.2PL0 Copyright (c) Steve Scherf et al.
# Submitted via: CDex 1.77
#
DISCID=7e0a840a
DTITLE=Norman Brown - Just Chillin'
DYEAR=2002
DGENRE=Jazz
TTITLE0=Norman Brown - Just Chillin' - 01 - The Feeling I Get
TTITLE1=Norman Brown - Just Chillin' - 02 - Just Chillin'
TTITLE2=Norman Brown - Just Chillin' - 03 - Feeling The Way
TTITLE3=Norman Brown - Just Chillin' - 04 - Night Drive
TTITLE4=Norman Brown - Just Chillin' - 05 - I Still Believe
TTITLE5=Norman Brown - Just Chillin' - 06 - Dancing In The House
TTITLE6=Norman Brown - Just Chillin' - 07 - Let's Wait Awhile
TTITLE7=Norman Brown - Just Chillin' - 08 - Won't You Stay
TTITLE8=Norman Brown - Just Chillin' - 09 - In My Life
TTITLE9=Norman Brown - Just Chillin' - 10 - Not Like You Do
EXTD=YEAR: 2002
EXTT0=
EXTT1=
EXTT2=
EXTT3=
EXTT4=
EXTT5=
EXTT6=
EXTT7=
EXTT8=
EXTT9=
PLAYORDER=
